<?xml version="1.0" encoding="utf-8"?>
<!-- Generator: Adobe Illustrator 25.2.0, SVG Export Plug-In . SVG Version: 6.00 Build 0)  -->
<svg version="1.1" id="Layer_1" xmlns="http://www.w3.org/2000/svg" xmlns:xlink="http://www.w3.org/1999/xlink" x="0px" y="0px"
	 viewBox="0 0 512 512" style="enable-background:new 0 0 512 512;" xml:space="preserve">
<style type="text/css">
	.st0{fill:#005C9B;}
	.st1{fill:#FEFEFE;}
</style>
<g>
	<path class="st0" d="M246.8,482.6c-7.4,0-19.4-0.4-35.8-1.2l-7.1-0.4V341.1h26.6c32.6,0,57.2-7.2,73-21.3
		c15.6-13.9,23.5-35.4,23.5-63.9c0-27-7.5-46.5-22.9-59.6c-15.6-13.3-39.7-20-71.8-20h-32.7v303.8h-134V38.9h162.4
		c69.4,0,124.8,17.2,164.5,51.1c47.2,40.6,71.1,96.5,71.1,165.9c0,66.2-20.4,121.1-60.7,163.2C362.7,461.3,310.2,482.6,246.8,482.6z
		"/>
	<path class="st1" d="M228.1,46.4c67.9,0,121.1,16.4,159.7,49.3c45.7,39.4,68.5,92.7,68.5,160.2c0,64.5-19.5,117.2-58.6,158
		s-89.3,61.2-150.8,61.2c-7.2,0-19.1-0.4-35.4-1.2V348.6h19.1c69.3,0,104-30.9,104-92.7c0-58.1-34-87.1-102.2-87.1h-40.2v303.8h-119
		V46.4H228.1 M228.1,31.4H73.1h-15v15v426.1v15h15h119h4.3v0.6l14.2,0.7c16.5,0.8,28.7,1.3,36.2,1.3c65.5,0,119.8-22.1,161.6-65.8
		c41.7-43.5,62.8-100.2,62.8-168.4c0-35.6-6.2-68.1-18.3-96.5c-12.3-28.7-30.9-53.9-55.4-75l0,0l0,0c-20.7-17.7-45.7-31.1-74.1-39.9
		C295.5,35.8,263.4,31.4,228.1,31.4L228.1,31.4z M207.1,183.8h25.2c30.2,0,52.8,6.1,66.9,18.2c13.6,11.6,20.3,29.3,20.3,53.9
		c0,26.7-6.9,45.7-21,58.3c-14.4,12.9-37.3,19.4-68,19.4h-19.1h-4.3V183.8L207.1,183.8z"/>
</g>
</svg>
