<?xml version="1.0" encoding="utf-8"?>
<!-- Generator: Adobe Illustrator 25.2.0, SVG Export Plug-In . SVG Version: 6.00 Build 0)  -->
<svg version="1.1" id="Layer_1" xmlns="http://www.w3.org/2000/svg" xmlns:xlink="http://www.w3.org/1999/xlink" x="0px" y="0px"
	 viewBox="0 0 512 512" style="enable-background:new 0 0 512 512;" xml:space="preserve">
<style type="text/css">
	.st0{fill:#FFFFFF;}
</style>
<g>
	<path d="M77.5,501.9V10.1h82.8c67.1,0,113.6,3.3,142.2,9.9c28.8,6.7,53.9,18.5,74.7,35.1c27.4,21.8,48.6,50.2,62.9,84.5
		c14.2,34,21.4,73.3,21.4,116.8c0,43.5-7.2,82.8-21.4,116.9c-14.4,34.4-35.4,62.4-62.4,83.1c-21.4,16.4-46.1,28.3-73.5,35.2
		c-27.3,6.9-69.6,10.3-129.4,10.3H77.5z M190,446.7c48,0,82.2-2.7,101.9-7.9c19-5.1,35.2-13.8,48.3-25.9
		c18.7-17.5,33-39.6,42.7-65.8c9.7-26.5,14.7-57.3,14.7-91.4c0-35-5-66.2-14.8-92.7c-9.7-26.1-24.1-47.7-43-64.4
		c-14-12.6-31.4-21.6-51.6-26.8c-21-5.4-58.7-8.1-112-8.1h-37.6v383H190z"/>
	<path class="st0" d="M160.3,19.1c65.8,0,112.5,3.2,140.2,9.7c27.6,6.5,51.4,17.6,71.2,33.3C397.9,83,418,110,431.8,143
		c13.8,33,20.7,70.8,20.7,113.3c0,42.5-6.9,80.3-20.7,113.5c-13.8,33.1-33.7,59.6-59.6,79.5c-20.5,15.8-43.9,27-70.2,33.7
		c-26.3,6.7-68.7,10-127.2,10h-14.6H86.5V19.1H160.3 M129.5,455.7H190c49,0,83.7-2.8,104.2-8.3c20.5-5.5,37.9-14.8,52.1-28
		c19.9-18.6,34.8-41.6,45-69.3c10.1-27.6,15.2-59.1,15.2-94.5c0-36.3-5.1-68.2-15.4-95.8c-10.3-27.6-25.4-50.3-45.5-68
		c-15.1-13.6-33.6-23.2-55.3-28.8c-21.8-5.6-59.9-8.4-114.3-8.4H168h-38.5V455.7 M160.3,1.1H86.5h-18v18v473.9v18h18h73.8h14.6
		c60.5,0,103.6-3.5,131.6-10.6c28.6-7.3,54.4-19.7,76.8-36.8c28.3-21.7,50.2-50.9,65.2-86.8c14.7-35.2,22.1-75.7,22.1-120.4
		c0-44.7-7.4-85.2-22.1-120.2c-14.9-35.7-37-65.3-65.6-88.1c-21.9-17.4-48.2-29.7-78.3-36.8C275.3,4.4,228.1,1.1,160.3,1.1
		L160.3,1.1z M147.5,72.7H168h8.1c52.6,0,89.5,2.6,109.8,7.8c18.9,4.9,34.9,13.2,47.8,24.8l0.1,0.1l0.1,0.1
		c17.7,15.6,31.3,36.1,40.5,60.7c9.5,25.5,14.2,55.6,14.2,89.5c0,33.1-4.7,62.8-14.1,88.3c-9.1,24.8-22.7,45.8-40.4,62.3
		c-12,11.1-27,19.1-44.5,23.8c-18.9,5.1-52.4,7.6-99.6,7.6h-42.5V72.7L147.5,72.7z"/>
</g>
</svg>
