<?xml version="1.0" encoding="utf-8"?>
<!-- Generator: Adobe Illustrator 25.2.0, SVG Export Plug-In . SVG Version: 6.00 Build 0)  -->
<svg version="1.1" id="Layer_1" xmlns="http://www.w3.org/2000/svg" xmlns:xlink="http://www.w3.org/1999/xlink" x="0px" y="0px"
	 viewBox="0 0 1920 618" enable-background="new 0 0 1920 618" xml:space="preserve">
<path fill="#025B9A" d="M149.5,164.4v293.9H46V46h134.8c59.1,0,105.4,15.9,138.9,47.7c39.8,38.1,59.6,89.7,59.6,155
	c0,62.4-17,113.4-51,152.9c-34,39.5-77.7,59.2-131.2,59.2c-6.3,0-16.6-0.4-30.8-1.2V338.4h16.6c60.3,0,90.5-29.9,90.5-89.7
	c0-56.2-29.6-84.3-88.9-84.3H149.5z"/>
<rect x="393.1" y="156.4" fill="#025B9A" width="82.8" height="302.6"/>
<polygon fill="#025B9A" points="743.1,141.4 612.7,514 483.2,141.4 586.2,141.4 613.6,251.4 643.8,141.4 "/>
<rect x="749.5" y="156.4" fill="#00AEEF" width="82.8" height="302.6"/>
<path fill="#00AEEF" d="M860.2,459V262.6c0-34.4,9.5-62,28.4-82.7c19-20.7,44.2-31,75.7-31c31.4,0,55.4,10.1,72,30.1
	c16.6,20.1,25,49,25,86.7V459h-82.8V265.7c0-18.5-6-27.7-18.1-27.7c-11.7,0-17.5,9.2-17.5,27.7V459H860.2z"/>
<path fill="#025B9A" d="M1110.9,450.7c14.5,0,26.9,5.2,37.4,15.7c10.4,10.5,15.6,23,15.6,37.5c0,14.5-5.2,26.8-15.5,36.9
	c-10.3,10.1-22.8,15.2-37.5,15.2c-15.2,0-27.7-4.9-37.6-14.7c-9.8-9.8-14.7-22.4-14.7-37.6c0-14.8,5.1-27.3,15.3-37.6
	C1084.1,455.8,1096.4,450.7,1110.9,450.7z"/>
<path fill="#025B9A" d="M1248.3,243.3V459h-82.8V156.4h107.8c47.3,0,84.3,11.7,111.1,35c31.8,27.9,47.7,65.8,47.7,113.7
	c0,45.8-13.6,83.2-40.8,112.2c-27.2,29-62.2,43.4-105,43.4c-5,0-13.2-0.3-24.7-0.9V371h13.2c48.2,0,72.4-21.9,72.4-65.8
	c0-41.2-23.7-61.8-71.1-61.8H1248.3z"/>
<path fill="#025B9A" d="M1604.4,274.1v67.4h-54c-7.3,0-12.5,1.2-15.6,3.5c-3.1,2.4-4.6,6.4-4.6,12c0,6.4,1.6,10.5,4.7,12.5
	c3.1,2,9.5,3,19.2,3h55.6V459h-65c-30.6,0-53.9-7.9-70.1-23.8c-16.2-15.9-24.3-38.8-24.3-68.8V247.7c0-29,7.6-51.4,22.9-67.4
	c15.3-16,36.8-23.9,64.5-23.9h71.9v86.9h-52.8c-14.3,0-21.4,5-21.4,15.1c0,5.9,1.7,10,5.1,12.3c3.4,2.3,9.4,3.4,18.1,3.4H1604.4z"/>
<polygon fill="#025B9A" points="1881.3,141.4 1751,514 1621.5,141.4 1724.5,141.4 1751.9,251.4 1782.1,141.4 "/>
</svg>
