<?xml version="1.0" encoding="utf-8"?>
<!-- Generator: Adobe Illustrator 25.2.0, SVG Export Plug-In . SVG Version: 6.00 Build 0)  -->
<svg version="1.1" id="Layer_1" xmlns="http://www.w3.org/2000/svg" xmlns:xlink="http://www.w3.org/1999/xlink" x="0px" y="0px"
	 viewBox="0 0 240 240" style="enable-background:new 0 0 240 240;" xml:space="preserve">
<g>
	<path d="M43.4,97.7v79.8H10.1v-112h43.4c19,0,33.9,4.3,44.7,13c12.8,10.3,19.2,24.4,19.2,42.1c0,17-5.5,30.8-16.4,41.5
		c-10.9,10.7-25,16.1-42.2,16.1c-2,0-5.3-0.1-9.9-0.3V145h5.3c19.4,0,29.1-8.1,29.1-24.4c0-15.3-9.5-22.9-28.6-22.9H43.4z"/>
	<path d="M149.5,65.6v112h-33.3v-112H149.5z"/>
	<path d="M235.6,65.6L186.8,184L138.3,65.6h38.6l10.3,34.9l11.3-34.9H235.6z"/>
</g>
</svg>
