<?xml version="1.0" encoding="utf-8"?>
<!-- Generator: Adobe Illustrator 25.2.0, SVG Export Plug-In . SVG Version: 6.00 Build 0)  -->
<svg version="1.1" id="Layer_1" xmlns="http://www.w3.org/2000/svg" xmlns:xlink="http://www.w3.org/1999/xlink" x="0px" y="0px"
	 viewBox="0 0 512 512" style="enable-background:new 0 0 512 512;" xml:space="preserve">
<style type="text/css">
	.st0{fill:#231F20;}
	.st1{fill:none;}
</style>
<g>
	<path class="st0" d="M98.5,458.6V53.4h66c55.2,0,94.9,2.8,118.3,8.2c23.6,5.5,44.2,15.2,61.3,28.7c22.5,17.9,39.9,41.3,51.7,69.4
		c11.7,28,17.7,60.4,17.7,96.5s-5.9,68.5-17.7,96.6c-11.8,28.3-29.1,51.2-51.2,68.2c-17.5,13.5-37.8,23.2-60.3,28.9
		c-22.3,5.7-58.4,8.5-107.5,8.5L98.5,458.6L98.5,458.6z M189.4,419.1c40.4,0,69.4-2.3,86.2-6.8c16.4-4.4,30.5-12,41.9-22.4
		c16.1-15,28.4-34,36.6-56.3c8.3-22.5,12.5-48.7,12.5-77.7c0-29.7-4.3-56.2-12.6-78.8c-8.3-22.4-20.8-40.9-36.9-55.3
		c-12.1-10.9-27.1-18.7-44.6-23.2c-17.8-4.6-49.6-6.9-94.6-6.9h-34.8V419L189.4,419.1L189.4,419.1z"/>
	<path class="st0" d="M164.5,57.6c55.1,0,94.2,2.7,117.4,8.1c23.1,5.4,43,14.7,59.6,27.9c22,17.5,38.8,40.1,50.4,67.7
		c11.6,27.6,17.3,59.3,17.3,94.9s-5.8,67.2-17.3,95c-11.6,27.7-28.2,49.9-49.9,66.6c-17.2,13.2-36.8,22.6-58.8,28.2
		s-57.5,8.4-106.5,8.4h-12.2h-61.8V57.6H164.5 M138.7,423.2h50.7c41,0,70.1-2.3,87.2-6.9c17.2-4.6,31.7-12.4,43.6-23.4
		c16.7-15.6,29.1-34.8,37.7-58c8.5-23.1,12.7-49.5,12.7-79.1c0-30.4-4.3-57.1-12.9-80.2s-21.3-42.1-38.1-56.9
		c-12.6-11.4-28.1-19.4-46.3-24.1c-18.3-4.7-50.2-7-95.7-7h-6.8h-32.2L138.7,423.2 M164.5,49.2h-61.8h-8.4v8.4v396.8v8.4h8.4h61.8
		h12.2c50.2,0,85.6-2.8,108.6-8.6c23-5.9,43.9-15.8,61.9-29.6c22.8-17.4,40.4-40.9,52.5-69.9c12-28.6,18-61.7,18-98.2s-6-69.5-18-98
		c-12.1-28.8-29.9-52.7-52.9-71.1c-17.5-13.9-38.7-23.9-63-29.5C259.8,52,220.8,49.2,164.5,49.2L164.5,49.2z M147.1,95.8h23.9h6.8
		c44.6,0,76.1,2.3,93.6,6.8c16.8,4.4,31.2,11.8,42.9,22.3l0,0l0,0c15.7,13.8,27.7,31.8,35.8,53.6c8.2,22.1,12.3,48.1,12.3,77.3
		c0,28.5-4.1,54.2-12.2,76.3c-8,21.8-19.9,40.2-35.5,54.8c-10.9,10-24.4,17.2-40.1,21.5c-16.4,4.4-45,6.6-85.1,6.6h-42.3L147.1,95.8
		L147.1,95.8z"/>
</g>
<rect x="0" class="st1" width="512" height="512"/>
</svg>
