<svg id="Layer_1" data-name="Layer 1" xmlns="http://www.w3.org/2000/svg" viewBox="0 0 1835.35 509.99"><defs><style>.cls-1{fill:#231f20;}.cls-2{fill:#00aeef;}</style></defs><path class="cls-1" d="M149.46,164.42V458.36H46V46H180.81q88.68,0,138.89,47.73,59.63,57.09,59.63,155,0,93.66-51,152.86T197.12,460.77q-9.44,0-30.84-1.2V338.43h16.57q90.47,0,90.46-89.73,0-84.27-88.93-84.28Z" transform="translate(-46 -46)"/><rect class="cls-1" x="347.05" y="110.41" width="82.75" height="302.59"/><polygon class="cls-1" points="697.1 95.41 566.72 468 437.23 95.41 540.21 95.41 567.6 205.4 597.84 95.41 697.1 95.41"/><rect class="cls-2" x="703.53" y="110.41" width="82.75" height="302.59"/><path class="cls-2" d="M860.15,459V262.59q0-51.64,28.43-82.68t75.72-31q47.09,0,72,30.15t25,86.68V459H978.57V265.7q0-27.72-18.14-27.71-17.53,0-17.53,27.71V459Z" transform="translate(-46 -46)"/><path class="cls-1" d="M1110.88,450.69q21.73,0,37.36,15.74t15.63,37.46a49.71,49.71,0,0,1-15.52,36.91A51.64,51.64,0,0,1,1110.88,556q-22.83,0-37.57-14.75t-14.74-37.57q0-22.17,15.29-37.58A50.25,50.25,0,0,1,1110.88,450.69Z" transform="translate(-46 -46)"/><path class="cls-1" d="M1248.27,243.31V459h-82.75V156.41h107.82q70.94,0,111.08,35,47.7,41.9,47.7,113.72,0,68.73-40.77,112.17t-105,43.45q-7.53,0-24.66-.88V371H1275q72.36,0,72.36-65.84,0-61.84-71.14-61.84Z" transform="translate(-46 -46)"/><path class="cls-1" d="M1604.43,274.12v67.39h-54q-11,0-15.59,3.55t-4.58,12q0,9.53,4.68,12.52t19.16,3h55.64V459h-65q-45.87,0-70.12-23.83t-24.25-68.83V247.74q0-43.44,22.93-67.39t64.51-23.94h71.94v86.9h-52.78q-21.4,0-21.41,15.07,0,8.87,5.1,12.3t18.14,3.44Z" transform="translate(-46 -46)"/><polygon class="cls-1" points="1835.35 95.41 1704.98 468 1575.48 95.41 1678.46 95.41 1705.85 205.4 1736.09 95.41 1835.35 95.41"/></svg>