<?xml version="1.0" encoding="utf-8"?>
<!-- Generator: Adobe Illustrator 25.2.0, SVG Export Plug-In . SVG Version: 6.00 Build 0)  -->
<svg version="1.1" id="Layer_1" xmlns="http://www.w3.org/2000/svg" xmlns:xlink="http://www.w3.org/1999/xlink" x="0px" y="0px"
	 viewBox="0 0 1920 618" style="enable-background:new 0 0 1920 618;" xml:space="preserve">
<style type="text/css">
	.st0{display:none;stroke:#FFFEFE;stroke-width:10;stroke-miterlimit:10;}
	.st1{fill:#025B9A;}
	.st2{fill:#FFFEFE;}
	.st3{fill:#00AEEF;}
</style>
<rect x="-84.7" y="-61.3" class="st0" width="2189.9" height="769.2"/>
<g>
	<path class="st1" d="M214.9,507.8c-7.3,0-19.3-0.4-35.7-1.2l-4.7-0.2v-135h24.1c66.6,0,99-28.7,99-87.7c0-55.3-31.8-82.1-97.2-82.1
		h-35.2v303.8h-129V69.1h159.9c68.8,0,123.6,17,162.9,50.5c46.6,40.1,70.3,95.3,70.3,164c0,65.6-20.2,119.9-60,161.5
		C329.4,486.7,277.5,507.8,214.9,507.8z"/>
	<path class="st2" d="M196.1,74.1c67.9,0,121.1,16.4,159.7,49.3c45.7,39.4,68.5,92.7,68.5,160.2c0,64.5-19.5,117.2-58.6,158
		c-39.1,40.8-89.3,61.2-150.8,61.2c-7.2,0-19.1-0.4-35.4-1.2V376.3h19.1c69.3,0,104-30.9,104-92.7c0-58.1-34-87.1-102.2-87.1h-40.2
		v303.8h-119V74.1H196.1 M196.1,64.1H41.2h-10v10v426.1v10h10h119h9.3v0.8l9.5,0.5c16.4,0.8,28.5,1.3,35.9,1.3
		c31.9,0,61.4-5.4,87.6-16c26.3-10.7,50-26.9,70.5-48.3c20.4-21.3,35.9-46.1,46.1-73.6c10.1-27.3,15.3-58.1,15.3-91.4
		c0-35-6-66.8-17.9-94.6c-12-28-30.2-52.6-54.1-73.2c-20.2-17.3-44.6-30.4-72.4-39C262.5,68.4,230.9,64.1,196.1,64.1L196.1,64.1z
		 M170.2,206.4h30.2c31.5,0,55.1,6.5,70.2,19.4c14.8,12.6,22,31.5,22,57.7c0,28.2-7.4,48.5-22.7,62.1
		c-15.4,13.7-39.4,20.6-71.4,20.6h-19.1h-9.3V206.4L170.2,206.4z"/>
</g>
<g>
	<rect x="433.1" y="193.4" class="st1" width="92.8" height="312.6"/>
	<path class="st2" d="M520.9,198.4V501h-82.8V198.4H520.9 M530.9,188.4h-10h-82.8h-10v10V501v10h10h82.8h10v-10V198.4V188.4
		L530.9,188.4z"/>
</g>
<g>
	<polygon class="st1" points="521.2,178.4 635.1,178.4 658.8,273.7 685,178.4 795.1,178.4 657.7,571.2 	"/>
	<path class="st2" d="M788.1,183.4L657.7,556L528.2,183.4h103l27.4,110l30.2-110H788.1 M802.2,173.4h-14.1h-99.3h-7.6l-2,7.4
		l-20.1,73.2L640.9,181l-1.9-7.6h-7.8h-103h-14.1l4.6,13.3l129.5,372.6l9.4,27.1l9.5-27.1l130.4-372.6L802.2,173.4L802.2,173.4z"/>
</g>
<g>
	<rect x="791.5" y="193.4" class="st3" width="92.8" height="312.6"/>
	<path class="st2" d="M879.3,198.4V501h-82.8V198.4H879.3 M889.3,188.4h-10h-82.8h-10v10V501v10h10h82.8h10v-10V198.4V188.4
		L889.3,188.4z"/>
</g>
<g>
	<path class="st3" d="M1018.5,506V307.7c0-22.7-9.5-22.7-13.1-22.7c-3.4,0-12.5,0-12.5,22.7V506h-92.7V304.6
		c0-35.5,10-64.5,29.7-86.1c19.9-21.7,46.6-32.6,79.4-32.6c32.8,0,58.3,10.7,75.8,31.9c17.4,21,26.2,51.3,26.2,89.9V506H1018.5z"/>
	<path class="st2" d="M1009.3,190.9c31.4,0,55.4,10.1,72,30.1c16.6,20.1,25,49,25,86.7V501h-82.8V307.7c0-18.5-6-27.7-18.1-27.7
		c-11.7,0-17.5,9.2-17.5,27.7V501h-82.7V304.6c0-34.4,9.5-62,28.4-82.7C952.6,201.2,977.8,190.9,1009.3,190.9 M1009.3,180.9
		c-34.3,0-62.2,11.5-83.1,34.2c-20.6,22.6-31,52.7-31,89.5V501v10h10h82.7h10v-10V307.7c0-9.6,1.8-13.8,2.8-15.4
		c0.8-1.2,1.7-2.3,4.7-2.3c3.4,0,4.4,1.2,5.2,2.4c1.1,1.6,2.9,5.8,2.9,15.3V501v10h10h82.8h10v-10V307.7c0-39.8-9.2-71.1-27.3-93.1
		C1070.4,192.2,1043.6,180.9,1009.3,180.9L1009.3,180.9z"/>
</g>
<g>
	<path class="st1" d="M1135,616.7c-16.5,0-30.3-5.4-41.1-16.1c-10.7-10.7-16.2-24.6-16.2-41.2c0-16.1,5.6-29.9,16.7-41.1
		c11.1-11.2,24.7-16.9,40.6-16.9c15.8,0,29.5,5.8,40.9,17.2c11.3,11.4,17.1,25.2,17.1,41c0,15.8-5.7,29.4-17,40.5
		C1164.7,611.1,1150.9,616.7,1135,616.7z"/>
	<path class="st2" d="M1135,506.3c14.5,0,26.9,5.2,37.4,15.7c10.4,10.5,15.6,23,15.6,37.5s-5.2,26.8-15.5,36.9
		c-10.3,10.1-22.8,15.2-37.5,15.2c-15.2,0-27.7-4.9-37.6-14.7c-9.8-9.8-14.7-22.4-14.7-37.6c0-14.8,5.1-27.3,15.3-37.6
		C1108.2,511.4,1120.5,506.3,1135,506.3 M1135,496.3c-17.2,0-32,6.2-44.1,18.4c-12.1,12.2-18.2,27.2-18.2,44.6
		c0,17.9,5.9,33,17.6,44.7l0,0l0,0c11.8,11.7,26.8,17.6,44.6,17.6c17.3,0,32.3-6.1,44.5-18.1c12.3-12,18.5-26.9,18.5-44
		c0-17.2-6.2-32.1-18.5-44.5C1167.1,502.6,1152.1,496.3,1135,496.3L1135,496.3z"/>
</g>
<g>
	<path class="st1" d="M1287.3,507.7c-5.1,0-13.3-0.3-25-0.9l-4.7-0.2V408h18.2c45.4,0,67.4-19.9,67.4-60.8
		c0-38.2-21.6-56.8-66.1-56.8h-22.8V506h-92.8V193.4h112.8c48.2,0,86.7,12.2,114.4,36.2c32.8,28.8,49.4,68.3,49.4,117.5
		c0,46.9-14.2,85.8-42.2,115.6C1368,492.6,1331.4,507.7,1287.3,507.7z"/>
	<path class="st2" d="M1274.3,198.4c47.3,0,84.3,11.7,111.1,35c31.8,27.9,47.7,65.8,47.7,113.7c0,45.8-13.6,83.2-40.8,112.2
		c-27.2,29-62.2,43.4-105,43.4c-5,0-13.2-0.3-24.7-0.9V413h13.2c48.2,0,72.4-21.9,72.4-65.8c0-41.2-23.7-61.8-71.1-61.8h-27.8v-0.1
		V501h-82.8V198.4H1274.3 M1274.3,188.4h-107.8h-10v10V501v10h10h82.8h3.3v0.3l9.5,0.5c11.8,0.6,20,0.9,25.2,0.9
		c45.5,0,83.3-15.7,112.3-46.6c28.9-30.8,43.5-70.8,43.5-119c0-50.7-17.2-91.5-51.1-121.2C1363.4,201,1323.8,188.4,1274.3,188.4
		L1274.3,188.4z M1259.3,295.4h17.8c21.1,0,36.8,4.4,46.8,13c9.6,8.4,14.3,21.1,14.3,38.8c0,19.2-4.9,32.9-14.8,42
		c-10.1,9.2-26.1,13.8-47.6,13.8h-13.2h-3.3V295.4L1259.3,295.4z"/>
</g>
<g>
	<path class="st1" d="M1545.7,506c-31.8,0-56.5-8.5-73.6-25.2c-17.1-16.8-25.8-41.2-25.8-72.4V289.7c0-30.2,8.2-54,24.3-70.9
		c16.1-16.9,39.1-25.4,68.1-25.4h76.9v96.9h-57.8c-16.4,0-16.4,6.8-16.4,10.1c0,4.1,1,6.9,2.9,8.2c1.7,1.2,5.8,2.5,15.3,2.5h50.8
		v77.4h-59c-7.9,0-11.3,1.5-12.6,2.5c-1.7,1.4-2.6,4.1-2.6,8c0,4.3,0.9,7.3,2.4,8.3c1,0.7,4.7,2.2,16.5,2.2h60.6V506H1545.7z"/>
	<path class="st2" d="M1610.6,198.4v86.9h-52.8c-14.3,0-21.4,5-21.4,15.1c0,5.9,1.7,10,5.1,12.3c3.4,2.3,9.4,3.4,18.1,3.4h45.8v0
		v67.4h-54c-7.3,0-12.5,1.2-15.6,3.5c-3.1,2.4-4.6,6.4-4.6,12c0,6.4,1.6,10.5,4.7,12.5s9.5,3,19.2,3h55.6V501h-65
		c-30.6,0-53.9-7.9-70.1-23.8s-24.3-38.8-24.3-68.8V289.7c0-29,7.6-51.4,22.9-67.4s36.8-23.9,64.5-23.9H1610.6 M1620.6,188.4h-10
		h-71.9c-30.5,0-54.6,9.1-71.7,27c-17,17.8-25.7,42.8-25.7,74.3v118.7c0,32.6,9.2,58.2,27.3,75.9c18,17.7,44,26.7,77.1,26.7h65h10
		v-10v-86.5v-10h-10h-55.6c-8.7,0-12.3-0.9-13.4-1.3c-0.2-0.6-0.5-1.8-0.5-4.2c0-2.7,0.5-3.8,0.7-4c0.5-0.3,2.9-1.5,9.5-1.5h54h10
		v-10v-67.4v-10h-10l-45.8,0c-9.9,0-12.4-1.6-12.5-1.7c0,0-0.7-0.9-0.7-4c0-2.4,0.7-2.9,1.1-3.2c0.8-0.6,3.5-1.9,10.3-1.9h52.8h10
		v-10v-86.9V188.4L1620.6,188.4z"/>
</g>
<g>
	<polygon class="st1" points="1615.5,178.4 1729.4,178.4 1753.1,273.7 1779.3,178.4 1889.3,178.4 1752,571.2 	"/>
	<path class="st2" d="M1882.3,183.4L1752,556l-129.5-372.6h103l27.4,110l30.2-110H1882.3 M1896.4,173.4h-14.1h-99.2h-7.6l-2,7.4
		l-20.1,73.2l-18.2-72.9l-1.9-7.6h-7.8h-103h-14.1l4.6,13.3l129.5,372.6l9.4,27.1l9.5-27.1l130.3-372.6L1896.4,173.4L1896.4,173.4z"
		/>
</g>
</svg>
