<?xml version="1.0" encoding="utf-8"?>
<!-- Generator: Adobe Illustrator 25.2.0, SVG Export Plug-In . SVG Version: 6.00 Build 0)  -->
<svg version="1.1" id="Layer_1" xmlns="http://www.w3.org/2000/svg" xmlns:xlink="http://www.w3.org/1999/xlink" x="0px" y="0px"
	 viewBox="0 0 1920 618" style="enable-background:new 0 0 1920 618;" xml:space="preserve">
<style type="text/css">
	.st0{display:none;stroke:#FFFEFE;stroke-width:10;stroke-miterlimit:10;}
	.st1{fill:#FFFFFF;}
	.st2{fill:none;stroke:#025B9A;stroke-width:46;stroke-miterlimit:10;}
	.st3{fill:#00AEEF;}
</style>
<rect x="-84.7" y="-61.3" class="st0" width="2189.9" height="769.2"/>
<g>
	<path d="M100.5,553.3V69.4h78.8c65.9,0,113.4,3.3,141.3,9.8c28.2,6.6,52.8,18.1,73.2,34.3c26.9,21.4,47.6,49.3,61.7,82.9
		c14,33.5,21.1,72.2,21.1,115.2s-7.1,81.8-21.1,115.4c-14.1,33.8-34.7,61.2-61.1,81.5c-20.9,16.1-45.2,27.7-72,34.5
		c-26.6,6.8-69.8,10.2-128.4,10.2L100.5,553.3L100.5,553.3z M209.1,506.1c48.3,0,82.9-2.7,102.9-8.1c19.6-5.3,36.4-14.3,50-26.8
		c19.2-17.9,33.9-40.6,43.7-67.3c9.9-26.9,14.9-58.2,14.9-92.8c0-35.5-5.1-67.1-15.1-94.1c-9.9-26.7-24.8-48.9-44.1-66
		c-14.5-13-32.4-22.3-53.3-27.7c-21.3-5.5-59.3-8.3-113-8.3h-41.6v391L209.1,506.1L209.1,506.1z"/>
	<path class="st1" d="M179.3,74.4c65.8,0,112.5,3.2,140.2,9.7c27.6,6.5,51.4,17.6,71.2,33.3c26.3,20.9,46.4,47.9,60.2,80.9
		c13.8,33,20.7,70.8,20.7,113.3s-6.9,80.3-20.7,113.5c-13.8,33.1-33.7,59.6-59.6,79.5c-20.5,15.8-43.9,27-70.2,33.7
		s-68.7,10-127.2,10h-14.6h-73.8V74.4H179.3 M148.5,511.1H209c49,0,83.7-2.8,104.2-8.3s37.9-14.8,52.1-28
		c19.9-18.6,34.8-41.6,45-69.3c10.1-27.6,15.2-59.1,15.2-94.5c0-36.3-5.1-68.2-15.4-95.8s-25.4-50.3-45.5-68
		c-15.1-13.6-33.6-23.2-55.3-28.8c-21.8-5.6-59.9-8.4-114.3-8.4h-8.1h-38.5L148.5,511.1 M179.3,64.4h-73.8h-10v10v473.9v10h10h73.8
		h14.6c59.9,0,102.3-3.4,129.7-10.3c27.5-7,52.4-18.9,73.9-35.4c27.2-20.8,48.3-48.9,62.7-83.5c14.3-34.2,21.5-73.7,21.5-117.3
		s-7.2-83-21.5-117.1c-14.4-34.4-35.7-63-63.2-84.9c-20.9-16.6-46.2-28.5-75.2-35.2C293.1,67.7,246.5,64.4,179.3,64.4L179.3,64.4z
		 M158.5,120H187h8.1c53.3,0,90.9,2.7,111.8,8.1c20.1,5.2,37.3,14.1,51.2,26.6l0,0l0,0c18.7,16.5,33.1,38,42.7,64
		c9.8,26.4,14.7,57.5,14.7,92.3c0,34-4.9,64.7-14.6,91.1c-9.6,26-23.8,48-42.4,65.4c-13,12-29.1,20.6-47.9,25.7
		c-19.6,5.2-53.8,7.9-101.6,7.9h-50.5L158.5,120L158.5,120z"/>
</g>
<g>
	<rect x="492.3" y="70.7" width="53.4" height="482.6"/>
	<path class="st1" d="M540.7,75.7v472.6h-43.4V75.7H540.7 M550.7,65.7h-10h-43.4h-10v10v472.6v10h10h43.4h10v-10V75.7V65.7
		L550.7,65.7z"/>
</g>
<g>
	<path d="M648.6,553.3L549.1,70.7h53.3l62.3,330c1.7,8.4,3.8,20.8,6,36.6c0.5,3.2,0.9,6.6,1.4,10c1.8-12.7,4-26.7,6.7-42l0.6-3.8
		l59.7-330.8h54l-97.8,482.6L648.6,553.3L648.6,553.3z"/>
	<path class="st1" d="M787,75.7l-95.8,472.6h-38.5L555.3,75.7h43l61.5,325.9c1.7,8.4,3.7,20.6,6,36.4c2.3,15.9,4.5,33.6,6.6,53.2
		c1.3-21.1,5.1-49.5,11.3-85.1l0.6-3.9l58.9-326.6H787 M799.3,65.7H787h-43.7H735l-1.5,8.2l-58.9,326.6v0.1v0.1l-0.6,3.8
		c-0.6,3.3-1.1,6.5-1.7,9.6c-0.9-5.6-1.8-10.4-2.6-14.4L608.2,73.9l-1.5-8.1h-8.3h-43H543l2.5,12l97.4,472.6l1.6,8h8.1h38.5h8.2
		l1.6-8l95.8-472.6L799.3,65.7L799.3,65.7z"/>
</g>
<g>
	<rect x="796.3" y="70.7" width="53.4" height="482.6"/>
	<path class="st1" d="M844.7,75.7v472.6h-43.4V75.7H844.7 M854.7,65.7h-10h-43.4h-10v10v472.6v10h10h43.4h10v-10V75.7V65.7
		L854.7,65.7z"/>
</g>
<g>
	<path d="M1030.7,553.3L925.4,231.7c-4.5-14.4-9.1-29.7-13.5-45.6c0.9,11.2,1.6,22.1,2.2,32.7c1.7,29.6,2.6,57.4,2.6,82.8v251.6
		h-47.2V70.7h45.8l107.9,326.8c1.5,4.6,4.6,15.9,9.2,33.5c0.3,1,0.5,2,0.8,3c-0.5-7.3-1-14.7-1.4-22.1c-1.6-29.5-2.4-60.4-2.4-91.9
		V70.7h47.2v482.6H1030.7z"/>
	<path class="st1" d="M1071.6,75.7v472.6h-37.2L930.1,230.1c-4.7-15.1-9.5-31.1-14.2-48.1c-4.7-16.9-9.7-36.1-14.9-57.5
		c3.7,33.5,6.4,65,8.1,94.5c1.7,29.6,2.6,57.1,2.6,82.5v246.6h-37.2V75.7h37.2l106.8,323.4c1.5,4.5,4.5,15.6,9.1,33.2
		c4.5,17.6,10.1,39.7,16.8,66.2c-3.5-28.3-6-57.2-7.6-86.7c-1.6-29.6-2.4-60.1-2.4-91.6V75.7H1071.6 M1081.6,65.7h-10h-37.2h-10v10
		v244.4c0,23.4,0.5,46.5,1.3,68.9L921.2,72.6l-2.3-6.9h-7.2h-37.2h-10v10v472.6v10h10h37.2h10v-10V301.7c0-22.1-0.7-46-2-71.3
		c0.3,0.9,0.6,1.9,0.9,2.8v0.1v0.1l104.2,318.2l2.3,6.9h7.2h37.2h10v-10V75.7L1081.6,65.7L1081.6,65.7z"/>
</g>
<rect x="1133" y="24.9" class="st2" width="764" height="572"/>
<g>
	<g>
		<path class="st3" d="M1198.4,553.3V70.7h58.7c55.3,0,94.5,17.7,116.5,52.7c21.9,34.7,32.5,96.9,32.5,190.2
			c0,87.5-11.3,149.8-33.5,185.2c-22.7,36.1-62,54.5-116.9,54.5H1198.4z M1255.2,503.5c36.6,0,61.2-12,75.1-36.6
			c14.3-25.2,21.5-74.8,21.5-147.4c0-81.4-7-135.9-20.8-161.9c-13.4-25.3-37.4-37.6-73.3-37.6h-6v383.6h3.5V503.5z"/>
		<path class="st3" d="M1257.1,75.7c53.7,0,91.2,16.8,112.3,50.3c21.1,33.6,31.7,96.1,31.7,187.6c0,87-10.9,147.8-32.7,182.6
			c-21.8,34.7-59.3,52.1-112.6,52.1h-52.4V75.7H1257.1 M1246.8,508.5h8.4c38.2,0,64.7-13.1,79.5-39.2s22.2-76.1,22.2-149.9
			c0-82.6-7.1-137.4-21.4-164.3c-14.2-26.9-40.1-40.3-77.7-40.3h-11V508.5 M1257.1,65.7h-53.7h-10v10v472.6v10h10h52.4
			c56.7,0,97.5-19.1,121.1-56.8c11.5-18.4,20.2-43.7,25.9-75.2c5.5-30.9,8.3-68.8,8.3-112.6c0-46.1-2.7-85.5-8.1-117.2
			c-5.5-32.4-14-57.9-25.2-75.7C1354.9,84.2,1314.3,65.7,1257.1,65.7L1257.1,65.7z M1256.8,124.9h1c33.8,0,56.4,11.4,68.8,35
			c13.4,25.3,20.2,79,20.2,159.6c0,71.7-7,120.5-20.9,144.9c-12.8,22.6-35.4,33.7-69.2,34.1L1256.8,124.9L1256.8,124.9z"/>
	</g>
	<g>
		<polygon class="st3" points="1427.6,553.3 1427.6,70.7 1586.2,70.7 1586.2,120.5 1481,120.5 1481,280.8 1584.9,280.8 
			1584.9,329.3 1481,329.3 1481,503.5 1589.4,503.5 1589.4,553.3 		"/>
		<path class="st3" d="M1581.2,75.7v39.8H1476v170.3h103.9v38.5H1476v184.2h108.4v39.8h-151.8V75.7H1581.2 M1591.2,65.7h-10h-148.6
			h-10v10v472.6v10h10h151.8h10v-10v-39.8v-10h-10H1486V334.3h93.9h10v-10v-38.5v-10h-10H1486V125.5h95.2h10v-10V75.7V65.7
			L1591.2,65.7z"/>
	</g>
	<g>
		<path class="st3" d="M1700.6,553.3l-99.5-482.6h53.3l62.3,330c1.7,8.4,3.8,20.8,6,36.6c0.5,3.2,0.9,6.6,1.4,10
			c1.8-12.7,4-26.7,6.7-42l0.6-3.8l59.7-330.8h54l-97.8,482.6L1700.6,553.3L1700.6,553.3z"/>
		<path class="st3" d="M1839,75.7l-95.8,472.6h-38.5l-97.4-472.6h43l61.5,325.9c1.7,8.4,3.7,20.6,6,36.4c2.3,15.9,4.5,33.6,6.6,53.2
			c1.3-21.1,5.1-49.5,11.3-85.1l0.6-3.9l58.9-326.6h43.8 M1851.2,65.7H1839h-43.7h-8.4l-1.5,8.2l-58.9,326.6v0.1v0.1l-0.6,3.8
			c-0.6,3.3-1.1,6.5-1.7,9.6c-0.9-5.6-1.8-10.4-2.6-14.4l-61.5-325.9l-1.5-8.1h-8.3h-43H1595l2.5,12l97.4,472.6l1.6,8h8.1h38.5h8.2
			l1.6-8l95.8-472.6L1851.2,65.7L1851.2,65.7z"/>
	</g>
</g>
</svg>
